<svg data-v-423bf9ae="" xmlns="http://www.w3.org/2000/svg" viewBox="0 0 537 91" class="iconLeft"><!----><!----><!----><g data-v-423bf9ae="" id="7108e1fe-80a7-4932-b3ba-97143158bd6b" fill="black" transform="matrix(4.709576222757963,0,0,4.709576222757963,118.43806192154707,-1.1067519948187012)"><path d="M8.16 5.61C8.01 5.22 7.77 4.89 7.45 4.61C7.13 4.33 6.72 4.09 6.23 3.93C5.74 3.78 5.14 3.70 4.47 3.70L1.34 3.70L0.28 3.70L0.28 4.52C0.28 4.76 0.39 4.90 0.63 4.96C0.64 4.96 0.67 4.96 0.71 4.97C0.76 4.97 0.83 5.00 0.92 5.01C1.02 5.03 1.18 5.05 1.34 5.08L1.34 12.43C1.18 12.46 1.02 12.49 0.92 12.50C0.83 12.52 0.76 12.53 0.71 12.54C0.67 12.54 0.64 12.56 0.63 12.56C0.39 12.61 0.28 12.75 0.28 12.99L0.28 13.82L1.34 13.82L3.22 13.82L4.28 13.82L4.28 12.99C4.28 12.75 4.17 12.61 3.93 12.56C3.92 12.56 3.89 12.54 3.85 12.54C3.81 12.54 3.74 12.52 3.64 12.50C3.54 12.49 3.39 12.46 3.22 12.43L3.22 10.25L4.47 10.25C5.12 10.25 5.70 10.18 6.19 10.01C6.68 9.84 7.10 9.62 7.42 9.32C7.74 9.03 7.98 8.68 8.15 8.27C8.32 7.87 8.40 7.41 8.40 6.92C8.40 6.44 8.32 6.01 8.16 5.61ZM6.38 7.70C6.30 7.94 6.17 8.13 6.01 8.29C5.84 8.46 5.63 8.57 5.38 8.65C5.12 8.74 4.82 8.78 4.47 8.78L3.22 8.78L3.22 5.15L4.47 5.15C4.82 5.15 5.12 5.19 5.38 5.28C5.63 5.36 5.84 5.47 6.01 5.63C6.17 5.78 6.30 5.96 6.38 6.19C6.47 6.41 6.51 6.65 6.51 6.92C6.51 7.20 6.47 7.48 6.38 7.70ZM14.95 12.54C14.94 12.54 14.88 12.53 14.80 12.52C14.71 12.50 14.57 12.47 14.42 12.45L14.42 9.27C14.42 8.86 14.36 8.48 14.25 8.15C14.14 7.81 13.94 7.52 13.72 7.27C13.50 7.03 13.22 6.83 12.89 6.69C12.56 6.55 12.18 6.48 11.76 6.48C10.60 6.48 9.60 6.87 8.78 7.63L9.10 8.18C9.16 8.26 9.21 8.34 9.30 8.40C9.38 8.46 9.49 8.48 9.60 8.48C9.74 8.48 9.87 8.46 9.98 8.39C10.09 8.32 10.22 8.26 10.36 8.18C10.50 8.09 10.67 8.02 10.85 7.95C11.03 7.88 11.27 7.85 11.55 7.85C11.94 7.85 12.24 7.97 12.43 8.20C12.63 8.44 12.74 8.79 12.74 9.28L12.74 9.70C11.93 9.70 11.23 9.77 10.68 9.91C10.14 10.05 9.70 10.23 9.37 10.44C9.03 10.65 8.79 10.89 8.65 11.16C8.51 11.42 8.44 11.70 8.44 11.97C8.44 12.29 8.50 12.57 8.60 12.81C8.69 13.05 8.85 13.26 9.03 13.43C9.21 13.59 9.44 13.71 9.69 13.79C9.94 13.87 10.22 13.92 10.53 13.92C10.78 13.92 11.02 13.89 11.23 13.85C11.44 13.80 11.63 13.75 11.82 13.66C12.00 13.58 12.19 13.48 12.36 13.36C12.54 13.23 12.71 13.09 12.89 12.92L13.05 13.43C13.09 13.58 13.16 13.69 13.26 13.73C13.36 13.79 13.48 13.80 13.65 13.80L14.24 13.80L14.42 13.80L15.30 13.80L15.30 12.98C15.30 12.74 15.19 12.60 14.95 12.54ZM12.74 11.96C12.61 12.08 12.49 12.19 12.36 12.29C12.24 12.39 12.11 12.46 11.98 12.53C11.86 12.60 11.70 12.66 11.55 12.68C11.40 12.71 11.24 12.73 11.06 12.73C10.77 12.73 10.54 12.66 10.36 12.53C10.18 12.40 10.09 12.18 10.09 11.87C10.09 11.72 10.14 11.56 10.22 11.44C10.30 11.31 10.44 11.20 10.65 11.10C10.86 11.00 11.14 10.92 11.48 10.85C11.82 10.78 12.24 10.75 12.74 10.75ZM23.23 6.64L23.23 6.64L21.84 6.64L21.84 6.64L20.15 6.64L20.15 7.46C20.15 7.70 20.26 7.84 20.50 7.90C20.58 7.91 20.61 7.91 20.97 7.98L19.92 10.68C19.87 10.81 19.82 10.93 19.78 11.06C19.74 11.19 19.70 11.31 19.66 11.45C19.63 11.33 19.60 11.19 19.56 11.06C19.52 10.93 19.49 10.81 19.43 10.68L18.30 7.95C18.52 7.91 18.56 7.91 18.63 7.90C18.87 7.84 18.98 7.70 18.98 7.46L18.98 6.64L17.40 6.64L17.40 6.64L15.89 6.64L15.89 6.64L15.48 6.64L15.48 7.46C15.48 7.70 15.60 7.84 15.83 7.90C15.95 7.91 15.90 7.92 16.49 8.02L18.80 13.29L17.46 16.16L18.75 16.16C18.91 16.16 19.03 16.14 19.11 16.07C19.19 16.02 19.26 15.92 19.32 15.79L22.64 8.02C23.23 7.92 23.18 7.91 23.30 7.90C23.53 7.84 23.65 7.70 23.65 7.46L23.65 6.64ZM27.79 4.96C28.03 4.90 28.14 4.76 28.14 4.52L28.14 3.70L27.09 3.70L25.20 3.70L24.14 3.70L24.14 4.52C24.14 4.76 24.25 4.90 24.49 4.96C24.50 4.96 24.53 4.96 24.57 4.97C24.61 4.97 24.68 5.00 24.78 5.01C24.88 5.03 25.03 5.05 25.20 5.08L25.20 12.43C25.03 12.46 24.88 12.49 24.78 12.50C24.68 12.52 24.61 12.53 24.57 12.54C24.53 12.54 24.50 12.56 24.49 12.56C24.25 12.61 24.14 12.75 24.14 12.99L24.14 13.82L25.20 13.82L27.09 13.82L28.14 13.82L28.14 12.99C28.14 12.75 28.03 12.61 27.79 12.56C27.78 12.56 27.75 12.54 27.71 12.54C27.66 12.54 27.59 12.52 27.50 12.50C27.40 12.49 27.26 12.46 27.09 12.43L27.09 5.08C27.26 5.05 27.40 5.03 27.50 5.01C27.59 5.00 27.66 4.97 27.71 4.97C27.75 4.97 27.78 4.96 27.79 4.96ZM31.61 13.93C31.96 13.93 32.30 13.87 32.62 13.76C32.94 13.65 33.24 13.50 33.49 13.29L32.97 12.45C32.93 12.39 32.90 12.36 32.87 12.33C32.84 12.31 32.79 12.31 32.73 12.31C32.69 12.31 32.66 12.31 32.62 12.33C32.58 12.36 32.52 12.39 32.47 12.42C32.41 12.45 32.35 12.47 32.28 12.50C32.21 12.53 32.13 12.53 32.02 12.53C31.84 12.53 31.68 12.47 31.57 12.35C31.46 12.22 31.40 12.05 31.40 11.83L31.40 7.94L33.29 7.94L33.29 6.71L31.40 6.71L31.40 4.44L30.51 4.44C30.41 4.44 30.31 4.47 30.24 4.52C30.17 4.58 30.13 4.63 30.11 4.73L29.75 6.69L28.59 6.87L28.59 7.57C28.59 7.70 28.63 7.78 28.70 7.84C28.77 7.90 28.84 7.94 28.94 7.94L29.67 7.94L29.67 11.94C29.67 12.56 29.83 13.05 30.17 13.40C30.51 13.75 31.00 13.93 31.61 13.93ZM41.38 3.70L41.06 3.70L35 3.70L33.94 3.70L33.94 4.52C33.94 4.76 34.05 4.90 34.29 4.96C34.30 4.96 34.33 4.96 34.37 4.97C34.41 4.97 34.48 5.00 34.58 5.01C34.68 5.03 34.83 5.05 35 5.08L35 12.43C34.83 12.46 34.68 12.49 34.58 12.50C34.48 12.52 34.41 12.54 34.37 12.54C34.33 12.54 34.30 12.56 34.29 12.56C34.05 12.61 33.94 12.75 33.94 12.99L33.94 13.82L35 13.82L36.89 13.82L37.95 13.82L37.95 12.99C37.95 12.75 37.84 12.61 37.60 12.56C37.59 12.56 37.56 12.54 37.52 12.54C37.48 12.54 37.41 12.52 37.31 12.50C37.21 12.49 37.06 12.46 36.89 12.43L36.89 9.69L40.43 9.69L40.43 8.19L36.89 8.19L36.89 5.19L40.50 5.19C40.54 5.68 40.59 5.98 40.60 6.09C40.64 6.26 40.74 6.36 40.92 6.36L41.51 6.36L41.68 6.36L41.73 6.36L41.73 5.00L41.73 4.68L41.73 3.70ZM45.29 6.52C44.76 6.52 44.25 6.62 43.82 6.79C43.39 6.96 43.01 7.20 42.70 7.52C42.39 7.84 42.14 8.22 41.97 8.68C41.80 9.14 41.72 9.65 41.72 10.21C41.72 10.78 41.80 11.28 41.97 11.75C42.14 12.21 42.39 12.60 42.70 12.92C43.01 13.24 43.39 13.50 43.82 13.66C44.25 13.83 44.76 13.92 45.29 13.92C45.82 13.92 46.31 13.83 46.75 13.66C47.18 13.50 47.56 13.24 47.87 12.92C48.17 12.60 48.40 12.21 48.57 11.75C48.73 11.28 48.82 10.78 48.82 10.21C48.82 9.65 48.73 9.14 48.57 8.68C48.40 8.22 48.17 7.84 47.87 7.52C47.56 7.20 47.18 6.96 46.75 6.79C46.31 6.62 45.82 6.52 45.29 6.52ZM45.29 12.59C44.69 12.59 44.24 12.39 43.95 11.98C43.65 11.58 43.50 11.00 43.50 10.23C43.50 9.46 43.65 8.86 43.95 8.46C44.24 8.05 44.69 7.84 45.29 7.84C45.89 7.84 46.33 8.05 46.61 8.46C46.89 8.86 47.04 9.45 47.04 10.22C47.04 10.99 46.89 11.58 46.61 11.98C46.33 12.39 45.89 12.59 45.29 12.59ZM54.07 6.51C53.63 6.51 53.26 6.64 52.91 6.89C52.56 7.14 52.26 7.49 52.01 7.94L51.90 7.07C51.87 6.92 51.83 6.80 51.76 6.73C51.69 6.66 51.58 6.64 51.39 6.64L50.37 6.64L50.37 6.64L49.32 6.64L49.32 7.46C49.32 7.70 49.43 7.84 49.67 7.90C49.78 7.91 49.77 7.91 50.37 8.02L50.37 12.43C49.77 12.54 49.78 12.54 49.67 12.56C49.43 12.61 49.32 12.75 49.32 12.99L49.32 13.82L50.37 13.82L52.11 13.82L52.11 13.82L53.16 13.82L53.16 12.99C53.16 12.75 53.05 12.61 52.81 12.56C52.70 12.54 52.71 12.54 52.11 12.43L52.11 9.35C52.29 8.97 52.50 8.67 52.75 8.47C53.00 8.27 53.31 8.18 53.68 8.18C53.87 8.18 54.04 8.20 54.17 8.23C54.29 8.26 54.38 8.27 54.45 8.27C54.53 8.27 54.60 8.25 54.64 8.22C54.68 8.19 54.71 8.13 54.73 8.05L54.95 6.75C54.71 6.58 54.42 6.51 54.07 6.51ZM66.88 6.64L66.88 6.64L65.58 6.64L65.56 6.64L63.95 6.64L63.95 7.46C63.95 7.70 64.06 7.84 64.30 7.90C64.40 7.91 64.41 7.92 64.81 7.99L64.04 10.79C63.98 11.00 63.92 11.23 63.88 11.42C63.84 11.62 63.80 11.83 63.77 12.03C63.73 11.83 63.67 11.65 63.63 11.45L63.46 10.86L62.29 6.94C62.26 6.85 62.20 6.78 62.12 6.72C62.03 6.66 61.94 6.62 61.81 6.62L61.04 6.62C60.93 6.62 60.83 6.66 60.75 6.72C60.66 6.78 60.61 6.85 60.58 6.94L59.39 10.79C59.32 11.00 59.26 11.21 59.21 11.41C59.15 11.61 59.09 11.82 59.04 12.01C59.01 11.82 58.97 11.61 58.94 11.41C58.91 11.21 58.86 11.00 58.80 10.79L58.04 7.98C58.37 7.92 58.39 7.91 58.48 7.90C58.72 7.84 58.83 7.70 58.83 7.46L58.83 6.64L57.27 6.64L57.27 6.64L55.90 6.64L55.90 6.64L55.33 6.64L55.33 7.46C55.33 7.70 55.44 7.84 55.68 7.90C55.79 7.91 55.75 7.92 56.34 8.02L58.18 13.82L59.50 13.82C59.68 13.82 59.81 13.72 59.88 13.51L61.19 9.38C61.24 9.24 61.28 9.10 61.31 8.96L61.39 8.54C61.42 8.68 61.43 8.81 61.47 8.95C61.50 9.09 61.56 9.23 61.60 9.37L62.89 13.51C62.96 13.72 63.06 13.82 63.21 13.82L64.61 13.82L66.44 8.02C67.05 7.91 66.99 7.91 67.10 7.90C67.34 7.84 67.45 7.70 67.45 7.46L67.45 6.64ZM74.28 12.54C74.27 12.54 74.21 12.53 74.13 12.52C74.05 12.50 73.91 12.47 73.75 12.45L73.75 9.27C73.75 8.86 73.70 8.48 73.58 8.15C73.47 7.81 73.28 7.52 73.05 7.27C72.83 7.03 72.55 6.83 72.23 6.69C71.89 6.55 71.51 6.48 71.09 6.48C69.93 6.48 68.94 6.87 68.11 7.63L68.43 8.18C68.49 8.26 68.54 8.34 68.63 8.40C68.71 8.46 68.82 8.48 68.94 8.48C69.08 8.48 69.20 8.46 69.31 8.39C69.43 8.32 69.55 8.26 69.69 8.18C69.83 8.09 70.00 8.02 70.18 7.95C70.36 7.88 70.60 7.85 70.88 7.85C71.27 7.85 71.57 7.97 71.76 8.20C71.96 8.44 72.07 8.79 72.07 9.28L72.07 9.70C71.26 9.70 70.56 9.77 70.01 9.91C69.47 10.05 69.03 10.23 68.70 10.44C68.36 10.65 68.12 10.89 67.98 11.16C67.84 11.42 67.77 11.70 67.77 11.97C67.77 12.29 67.83 12.57 67.93 12.81C68.03 13.05 68.18 13.26 68.36 13.43C68.54 13.59 68.77 13.71 69.02 13.79C69.27 13.87 69.55 13.92 69.86 13.92C70.11 13.92 70.35 13.89 70.56 13.85C70.77 13.80 70.97 13.75 71.15 13.66C71.33 13.58 71.53 13.48 71.69 13.36C71.88 13.23 72.04 13.09 72.23 12.92L72.38 13.43C72.42 13.58 72.49 13.69 72.59 13.73C72.69 13.79 72.81 13.80 72.98 13.80L73.57 13.80L73.75 13.80L74.63 13.80L74.63 12.98C74.63 12.74 74.52 12.60 74.28 12.54ZM72.07 11.96C71.95 12.08 71.82 12.19 71.69 12.29C71.57 12.39 71.44 12.46 71.32 12.53C71.19 12.60 71.04 12.66 70.88 12.68C70.73 12.71 70.57 12.73 70.39 12.73C70.10 12.73 69.87 12.66 69.69 12.53C69.51 12.40 69.43 12.18 69.43 11.87C69.43 11.72 69.47 11.56 69.55 11.44C69.64 11.31 69.78 11.20 69.99 11.10C70.20 11.00 70.48 10.92 70.81 10.85C71.15 10.78 71.57 10.75 72.07 10.75ZM79.91 6.51C79.48 6.51 79.10 6.64 78.75 6.89C78.40 7.14 78.11 7.49 77.85 7.94L77.74 7.07C77.71 6.92 77.67 6.80 77.60 6.73C77.53 6.66 77.42 6.64 77.24 6.64L76.22 6.64L76.22 6.64L75.17 6.64L75.17 7.46C75.17 7.70 75.28 7.84 75.52 7.90C75.63 7.91 75.61 7.91 76.22 8.02L76.22 12.43C75.61 12.54 75.63 12.54 75.52 12.56C75.28 12.61 75.17 12.75 75.17 12.99L75.17 13.82L76.22 13.82L77.95 13.82L77.95 13.82L79.00 13.82L79.00 12.99C79.00 12.75 78.89 12.61 78.65 12.56C78.54 12.54 78.55 12.54 77.95 12.43L77.95 9.35C78.13 8.97 78.34 8.67 78.60 8.47C78.85 8.27 79.16 8.18 79.52 8.18C79.72 8.18 79.88 8.20 80.01 8.23C80.14 8.26 80.22 8.27 80.29 8.27C80.37 8.27 80.44 8.25 80.49 8.22C80.53 8.19 80.56 8.13 80.57 8.05L80.79 6.75C80.56 6.58 80.26 6.51 79.91 6.51ZM88.79 12.96C88.79 12.73 88.68 12.59 88.44 12.53C88.41 12.53 88.38 12.52 88.35 12.52C88.33 12.52 88.26 12.49 88.17 12.47C88.09 12.46 87.96 12.45 87.81 12.42L87.81 3.42L86.07 3.42L85.02 3.42L85.02 4.24C85.02 4.48 85.13 4.62 85.37 4.68C85.39 4.68 85.41 4.69 85.46 4.69C85.50 4.69 85.57 4.72 85.67 4.73C85.76 4.75 85.89 4.77 86.07 4.80L86.07 7.20C85.85 6.97 85.60 6.82 85.32 6.69C85.04 6.57 84.69 6.50 84.28 6.50C83.80 6.50 83.38 6.59 83.01 6.79C82.63 6.99 82.31 7.24 82.04 7.57C81.77 7.91 81.55 8.30 81.41 8.76C81.27 9.23 81.20 9.72 81.20 10.25C81.20 10.84 81.27 11.35 81.40 11.82C81.52 12.26 81.70 12.66 81.94 12.96C82.18 13.27 82.46 13.51 82.78 13.68C83.10 13.85 83.45 13.92 83.85 13.92C84.35 13.92 84.80 13.82 85.18 13.61C85.55 13.40 85.88 13.15 86.17 12.81L86.31 13.47C86.34 13.58 86.38 13.65 86.46 13.71C86.55 13.76 86.63 13.79 86.74 13.79L87.81 13.79L88.79 13.79ZM86.09 11.69C85.86 11.97 85.62 12.18 85.37 12.33C85.12 12.49 84.81 12.56 84.45 12.56C84.22 12.56 84.01 12.52 83.83 12.43C83.65 12.35 83.51 12.21 83.38 12.03C83.26 11.84 83.16 11.62 83.09 11.33C83.02 11.03 82.99 10.67 82.99 10.25C82.99 9.83 83.02 9.48 83.10 9.17C83.19 8.86 83.30 8.61 83.44 8.41C83.59 8.22 83.78 8.06 83.99 7.97C84.20 7.87 84.42 7.81 84.69 7.81C84.95 7.81 85.20 7.87 85.44 7.97C85.67 8.06 85.89 8.23 86.09 8.47Z"></path></g><!----><g data-v-423bf9ae="" id="c4122a31-791a-41a7-a7e2-a3655ed50424" transform="matrix(1.0179258456181008,0,0,1.0179258456181008,-0.896292280905044,-5.103741684166216)" stroke="none" fill="black"><path d="M50.3 40.77c-6.6-9.1-20-6.1-19.77 5.7.18 11.4 13 17.23 19.77 24.79 6.75-7.56 19.59-13.39 19.77-24.79.19-11.8-13.17-14.8-19.77-5.7z"></path><path d="M99 62.83L86 48 73 62.83h8.26a33.32 33.32 0 0 1-62.38-2.37 5.44 5.44 0 1 0-10.42 3.42 44.21 44.21 0 0 0 83.6 1 5.41 5.41 0 0 0 .31-2zM14 52l13-14.83h-7.34a33.34 33.34 0 0 1 62.16 1.63 5.44 5.44 0 1 0 10.24-3.65 44.2 44.2 0 0 0-83.93 2H1z"></path></g><!----></svg>