<svg data-v-423bf9ae="" xmlns="http://www.w3.org/2000/svg" viewBox="0 0 531 91" class="iconLeft"><!----><!----><!----><g data-v-423bf9ae="" id="5839b09a-72b8-48f1-b579-24547b62e8d6" fill="#780AC3" transform="matrix(4.354136212645278,0,0,4.354136212645278,117.75381748523733,2.3294644395766255)"><path d="M0.46 13.30L5.15 13.30L5.15 12.80C3.92 12.73 3.81 12.66 3.81 11.94L3.81 9.45L4.65 9.45C5.96 9.45 7 9.21 7.64 8.75C8.34 8.25 8.72 7.49 8.72 6.45C8.72 5.33 8.22 4.56 7.53 4.14C6.85 3.72 5.94 3.61 4.80 3.61L0.46 3.61L0.46 4.14C1.46 4.19 1.57 4.26 1.57 4.97L1.57 11.94C1.57 12.66 1.46 12.73 0.46 12.77ZM3.81 8.20L3.81 4.77C3.81 4.38 3.92 4.26 4.63 4.26C5.57 4.26 6.37 4.89 6.37 6.50C6.37 7.56 6.01 8.81 4.59 8.81C4.05 8.81 3.81 8.74 3.81 8.20ZM9.17 11.44C9.17 12.49 9.87 13.47 11.28 13.47C12.18 13.47 12.80 12.98 13.29 12.66C13.47 13.09 13.71 13.47 14.38 13.47C15.11 13.47 15.99 13.23 16.45 13.05L16.41 12.59C16.23 12.60 15.95 12.59 15.74 12.52C15.55 12.46 15.29 12.29 15.29 11.47L15.29 8.23C15.29 7.36 15.15 6.27 12.67 6.27C10.61 6.27 9.35 7.08 9.35 7.99C9.35 8.62 10.25 8.88 10.61 8.88C10.92 8.88 11.07 8.65 11.19 8.32C11.58 7.13 12.03 6.92 12.42 6.92C12.82 6.92 13.23 7.15 13.23 7.95L13.23 8.69C12.74 9.03 11.56 9.38 10.65 9.69C9.55 10.07 9.17 10.64 9.17 11.44ZM11.33 11.20C11.33 10.54 11.55 10.22 11.97 9.98C12.40 9.74 12.89 9.55 13.23 9.39L13.23 11.42C13.20 12.18 12.74 12.38 12.36 12.38C11.82 12.38 11.33 11.94 11.33 11.20ZM16.04 6.97L16.51 7.04C16.72 7.08 16.88 7.24 17.04 7.62C17.85 9.56 18.69 11.63 19.43 13.57C19.54 13.85 19.59 14.21 19.52 14.49C19.43 14.81 19.31 15.18 18.97 15.18C18.82 15.18 18.63 15.11 18.47 14.97C18.20 14.77 18.07 14.67 17.84 14.67C17.39 14.67 16.94 15.27 16.94 15.81C16.94 16.35 17.54 16.69 18.07 16.69C19.04 16.69 19.68 16.16 20.44 14.14C21.25 11.97 22.09 9.91 22.92 7.91C23.17 7.31 23.32 7.04 23.72 7.00L24.01 6.97L24.01 6.44L21.20 6.44L21.20 6.97L21.77 7.06C21.97 7.08 22.05 7.21 21.98 7.48C21.59 8.81 21.14 10.11 20.71 11.42L20.68 11.42C20.22 10.14 19.70 8.83 19.26 7.52C19.17 7.24 19.21 7.08 19.43 7.06L19.96 6.97L19.96 6.44L16.04 6.44ZM26.95 13.30L31.40 13.30L31.40 12.77C30.41 12.73 30.30 12.66 30.30 11.94L30.30 4.97C30.30 4.26 30.41 4.19 31.40 4.14L31.40 3.61L26.95 3.61L26.95 4.14C27.94 4.19 28.06 4.26 28.06 4.97L28.06 11.94C28.06 12.66 27.94 12.73 26.95 12.77ZM31.98 7.14L32.79 7.14L32.79 11.66C32.79 12.94 33.74 13.47 34.52 13.47C35.10 13.47 35.97 13.20 36.75 12.71L36.60 12.28C36.40 12.36 36.11 12.42 35.80 12.42C35.27 12.42 34.90 12.03 34.90 11.13L34.90 7.14L36.36 7.14L36.36 6.44L34.90 6.44L34.90 4.68L34.09 4.68L32.86 6.44L31.98 6.44ZM40.17 13.30L44.86 13.30L44.86 12.77C43.62 12.73 43.51 12.66 43.51 11.94L43.51 8.85L45.11 8.85C45.99 8.85 46.17 9.09 46.40 10.11L46.93 10.11L46.93 6.86L46.40 6.86C46.17 7.88 45.99 8.12 45.11 8.12L43.51 8.12L43.51 4.76C43.51 4.35 43.61 4.26 44.00 4.26L44.94 4.26C46.38 4.26 46.63 4.84 47.07 6.20L47.60 6.20L47.60 3.61L40.17 3.61L40.17 4.14C41.16 4.19 41.27 4.26 41.27 4.97L41.27 11.94C41.27 12.66 41.16 12.73 40.17 12.77ZM47.92 9.87C47.92 12.11 49.00 13.47 51.55 13.47C54.10 13.47 55.17 12.11 55.17 9.87C55.17 7.63 54.10 6.27 51.55 6.27C49.00 6.27 47.92 7.63 47.92 9.87ZM50.15 9.87C50.15 7.99 50.55 6.92 51.55 6.92C52.54 6.92 52.95 7.99 52.95 9.87C52.95 11.75 52.54 12.82 51.55 12.82C50.55 12.82 50.15 11.75 50.15 9.87ZM56 13.30L60.23 13.30L60.23 12.77C59.15 12.71 59.02 12.67 59.02 12.08L59.02 8.95C59.02 8.22 59.16 7.90 59.50 7.90C59.72 7.90 59.93 8.01 60.24 8.19C60.42 8.30 60.62 8.41 60.89 8.41C61.17 8.41 61.45 8.26 61.60 8.05C61.75 7.84 61.82 7.56 61.82 7.25C61.82 6.65 61.43 6.27 60.84 6.27C60.26 6.27 59.79 6.65 58.98 7.50L58.81 6.27L56.08 6.68L56.08 7.18L56.57 7.25C56.80 7.28 56.91 7.41 56.91 7.97L56.91 12.08C56.91 12.67 56.80 12.73 56 12.77ZM62.08 6.97C62.64 7.03 62.79 7.10 62.96 7.57C63.27 8.43 63.35 8.71 63.63 9.59L64.81 13.30L66.35 13.30L67.62 9.00L67.68 9.00L69.08 13.30L70.62 13.30L71.62 10.02C71.92 9.06 72.21 8.18 72.42 7.67C72.63 7.13 72.73 7.03 73.44 6.97L73.44 6.44L70.55 6.44L70.55 6.97L71.15 7.06C71.40 7.10 71.43 7.25 71.39 7.52C71.26 8.22 70.80 10.00 70.45 11.31L70.39 11.31L68.95 6.44L67.48 6.44L66.18 11.31L66.14 11.31L65.07 7.46C64.99 7.15 65.04 7.04 65.32 7.01L65.72 6.97L65.72 6.44L62.08 6.44ZM73.63 11.44C73.63 12.49 74.33 13.47 75.74 13.47C76.64 13.47 77.25 12.98 77.74 12.66C77.92 13.09 78.16 13.47 78.83 13.47C79.56 13.47 80.44 13.23 80.91 13.05L80.86 12.59C80.68 12.60 80.40 12.59 80.19 12.52C80.01 12.46 79.74 12.29 79.74 11.47L79.74 8.23C79.74 7.36 79.60 6.27 77.13 6.27C75.07 6.27 73.81 7.08 73.81 7.99C73.81 8.62 74.70 8.88 75.07 8.88C75.38 8.88 75.53 8.65 75.64 8.32C76.03 7.13 76.48 6.92 76.87 6.92C77.28 6.92 77.69 7.15 77.69 7.95L77.69 8.69C77.20 9.03 76.02 9.38 75.11 9.69C74.00 10.07 73.63 10.64 73.63 11.44ZM75.78 11.20C75.78 10.54 76.01 10.22 76.43 9.98C76.86 9.74 77.35 9.55 77.69 9.39L77.69 11.42C77.66 12.18 77.20 12.38 76.82 12.38C76.27 12.38 75.78 11.94 75.78 11.20ZM81.03 13.30L85.26 13.30L85.26 12.77C84.18 12.71 84.06 12.67 84.06 12.08L84.06 8.95C84.06 8.22 84.20 7.90 84.53 7.90C84.76 7.90 84.97 8.01 85.27 8.19C85.46 8.30 85.65 8.41 85.92 8.41C86.20 8.41 86.48 8.26 86.63 8.05C86.79 7.84 86.86 7.56 86.86 7.25C86.86 6.65 86.46 6.27 85.88 6.27C85.29 6.27 84.83 6.65 84.01 7.50L83.85 6.27L81.12 6.68L81.12 7.18L81.61 7.25C81.83 7.28 81.94 7.41 81.94 7.97L81.94 12.08C81.94 12.67 81.83 12.73 81.03 12.77ZM87.02 10.00C87.02 12.04 88.06 13.47 89.84 13.47C90.36 13.47 91.11 13.20 91.87 12.60L91.87 13.30L94.89 13.30L94.89 12.77C94.09 12.73 93.98 12.67 93.98 12.08L93.98 3.00L93.88 2.91L91.04 3.29L91.04 3.79L91.53 3.88C91.76 3.92 91.87 4.05 91.87 4.61L91.87 6.45C91.56 6.33 91.17 6.27 90.69 6.27C89.64 6.27 88.72 6.58 88.07 7.18C87.42 7.80 87.02 8.74 87.02 10.00ZM89.25 9.72C89.25 7.66 90.02 6.92 90.80 6.92C91.34 6.92 91.62 7.18 91.76 7.46C91.87 7.67 91.87 7.99 91.87 8.29L91.87 11.17C91.87 11.73 91.67 12.39 90.78 12.39C89.87 12.39 89.25 11.51 89.25 9.72Z"></path></g><defs data-v-423bf9ae=""><linearGradient data-v-423bf9ae="" gradientTransform="rotate(25)" id="95e0066b-8f10-44d1-a202-534e7c151f9d" x1="0%" y1="0%" x2="100%" y2="0%"><stop data-v-423bf9ae="" offset="0%" style="stop-color: rgb(210, 112, 252); stop-opacity: 1;"></stop><stop data-v-423bf9ae="" offset="100%" style="stop-color: rgb(118, 29, 210); stop-opacity: 1;"></stop></linearGradient></defs><g data-v-423bf9ae="" id="7d9e898b-8549-484b-ba48-534d7999441a" transform="matrix(1.0179258456181008,0,0,1.0179258456181008,-0.896292280905044,-5.103741684166216)" stroke="none" fill="url(#95e0066b-8f10-44d1-a202-534e7c151f9d)"><path d="M50.3 40.77c-6.6-9.1-20-6.1-19.77 5.7.18 11.4 13 17.23 19.77 24.79 6.75-7.56 19.59-13.39 19.77-24.79.19-11.8-13.17-14.8-19.77-5.7z"></path><path d="M99 62.83L86 48 73 62.83h8.26a33.32 33.32 0 0 1-62.38-2.37 5.44 5.44 0 1 0-10.42 3.42 44.21 44.21 0 0 0 83.6 1 5.41 5.41 0 0 0 .31-2zM14 52l13-14.83h-7.34a33.34 33.34 0 0 1 62.16 1.63 5.44 5.44 0 1 0 10.24-3.65 44.2 44.2 0 0 0-83.93 2H1z"></path></g><!----></svg>